<svg xmlns="http://www.w3.org/2000/svg" viewBox="0 0 210.69 180.69">
<defs>
<style>
.a,.b,.c{fill:none;}
.a,.b{stroke:#403f3e;stroke-width:7px;}
.a{stroke-miterlimit:10;}
.b{stroke-linecap:round;stroke-linejoin:round;}
.c{stroke:transparent;}
</style>
</defs>
<title>saege</title>
<path class="a" d="M74,75.85A5.11,5.11,0,0,0,69,79.65h0l-8.85,31.2h0A5.08,5.08,0,0,0,70,113.32h0l8.86-31.1h0a4.64,4.64,0,0,0,.17-1.28A5.1,5.1,0,0,0,74,75.85"/>
<path class="b" d="M104.33,60.22H66.15A9,9,0,0,0,57.42,67h0L42.24,122.52h0a9.61,9.61,0,0,0-.25,2.07,9,9,0,0,0,9,9H73.61a9,9,0,0,0,7.7-4.33c.33-.56,30.58-55.12,30.58-55.12a9,9,0,0,0-7.54-13.92Z"/>
<polyline class="b" points="113.59 69.76 199.65 69.76 190.65 91.86 172.43 87.43 163.54 102.57 145.32 98.14 136.41 113.32 118.19 108.9 109.29 124.03 88.66 119.03"/>
<path class="b" d="M74,75.85A5.11,5.11,0,0,0,69,79.65h0l-8.85,31.2h0A5.08,5.08,0,0,0,70,113.32h0l8.86-31.1h0a4.64,4.64,0,0,0,.17-1.28A5.1,5.1,0,0,0,74,75.85"/>
<path class="b" d="M104.33,60.22H66.15A9,9,0,0,0,57.42,67h0L42.24,122.52h0a9.61,9.61,0,0,0-.25,2.07,9,9,0,0,0,9,9H73.61a9,9,0,0,0,7.7-4.33c.33-.56,30.58-55.12,30.58-55.12a9,9,0,0,0-7.54-13.92Z"/>
<polyline class="b" points="113.59 69.76 199.65 69.76 190.65 91.86 172.43 87.43 163.54 102.57 145.32 98.14 136.41 113.32 118.19 108.9 109.29 124.03 88.66 119.03"/>
<rect class="c" x="0.5" y="0.5" width="209.69" height="179.69"/>
</svg>