<svg xmlns="http://www.w3.org/2000/svg" viewBox="0 0 180.69 180.69">
<defs>
<style>
.a,.b,.c{fill:none;}
.a{stroke:#403f3e;stroke-linecap:round;stroke-linejoin:round;stroke-width:8px;}
.b{stroke:#fff;stroke-miterlimit:10;}
.c{stroke:transparent;}
</style>
</defs>
<title>gluehbirne</title>
<path class="a" d="M90.41,120H71.84c0-14.66-5.26-19.25-12.26-28.56A38.89,38.89,0,0,1,90.41,28.93h.31A38.9,38.9,0,0,1,121.58,91.4c-7.1,9.31-12.31,13.9-12.31,28.56Z"/>
<path class="a" d="M110.86,125.18A5.16,5.16,0,0,0,105.7,120H75.44a5.17,5.17,0,0,0-5.17,5.16v14.31A5,5,0,0,0,71,142h0l8.28,14.14h0a5.12,5.12,0,0,0,4.5,2.69H97.34a5.15,5.15,0,0,0,4.51-2.69h0l8.09-13.86c0-.07.08-.14.13-.21l.08-.15h0a5.23,5.23,0,0,0,.7-2.56Z"/>
<rect class="c" x="0.5" y="0.5" width="179.69" height="179.69"/>
</svg>